<?xml version="1.0"?>
<svg width="62" height="62" xmlns="http://www.w3.org/2000/svg" xmlns:svg="http://www.w3.org/2000/svg" version="1.1">

 <g class="layer">
  <title>Layer 1</title>
  <path d="m48.13,4.88c6.24,3.83 10.81,11.07 13,18c0.99,9.72 0.66,17.7 -5,26c-0.6,0.93 -1.2,1.86 -1.81,2.81c-6.39,6.39 -13.92,9.46 -22.94,9.57c-8.44,-0.13 -16.22,-2.18 -22.25,-8.38c-7.18,-9.57 -9.54,-18.12 -8,-30c1.18,-3.73 2.8,-6.77 5,-10c0.6,-0.93 1.2,-1.86 1.81,-2.81c10.82,-10.82 26.9,-12.49 40.19,-5.19z" fill="#C94646" id="svg_1"/>
  <path d="m48.13,4.88c6.24,3.83 10.81,11.07 13,18c0.99,9.72 0.66,17.7 -5,26c-0.6,0.93 -1.2,1.86 -1.81,2.81c-6.39,6.39 -13.92,9.46 -22.94,9.57c-8.44,-0.13 -16.22,-2.18 -22.25,-8.38c-7.18,-9.57 -9.54,-18.12 -8,-30c1.18,-3.73 2.8,-6.77 5,-10c0.6,-0.93 1.2,-1.86 1.81,-2.81c10.82,-10.82 26.9,-12.49 40.19,-5.19zm-33,10c-4.76,5.72 -6.91,10.92 -6.46,18.39c1.16,6.62 4.37,11.27 9.46,15.61c5.42,3.7 10.43,4.83 17,4c7.34,-2.25 12.39,-5.96 16.31,-12.62c2.32,-5.07 2.69,-9.92 1.69,-15.38c-2.58,-6.31 -5.91,-10.89 -12,-14c-8.4,-2.8 -19.62,-2.7 -26,4z" fill="#C54141" id="svg_2"/>
  <path d="m42.69,11.31c5.03,3.04 7.87,8.43 10.44,13.56c0.92,8.96 -0.64,14.77 -6.19,21.75c-6.1,4.89 -12.02,7.12 -19.81,6.25c-7.14,-1.72 -10.96,-5.16 -15.25,-11.12c-3.32,-5.45 -3.59,-10.65 -2.75,-16.88c2.25,-5.89 5.83,-11.17 11.46,-14.22c6.88,-2.11 15.4,-2.13 22.1,0.66zm-26.56,9.63c-2.95,4.67 -2.97,9.6 -2,14.93c1.89,4.54 4.6,8.59 9,11c5.24,2.06 11.08,1.69 16.18,-0.5c4.47,-2.52 7.06,-5.68 8.82,-10.5c0.91,-4.76 0.97,-8.92 -1.11,-13.37c-3.17,-4.64 -6.39,-7.11 -11.89,-8.63c-7.66,-0.85 -13.89,1.07 -19,7.07z" fill="#E3DBDB" id="svg_3"/>
  <path d="m48.13,4.88c6.24,3.83 10.81,11.07 13,18c0.99,9.72 0.66,17.7 -5,26c-0.6,0.93 -1.2,1.86 -1.81,2.81c-6.39,6.39 -13.92,9.46 -22.94,9.57c-8.44,-0.13 -16.22,-2.18 -22.25,-8.38c-7.18,-9.57 -9.54,-18.12 -8,-30c1.18,-3.73 2.8,-6.77 5,-10c0.6,-0.93 1.2,-1.86 1.81,-2.81c10.82,-10.82 26.9,-12.49 40.19,-5.19zm-38.46,8.07c-4.92,6.17 -6.96,12.88 -6.81,20.76c0.97,7.69 5.7,14.04 11.27,19.17c2.29,1.59 4.48,2.77 7,4c0.66,0.33 1.32,0.66 2,1c9.76,0.74 17.97,0.64 25.96,-5.51c6.6,-5.97 9.54,-13.27 10.07,-22.08c-0.1,-8.59 -3.85,-14.17 -9.77,-20.18c-6.83,-6.24 -13.56,-6.69 -22.63,-6.54c-7.44,0.63 -12.06,4.03 -17.09,9.38z" fill="#4C4646" id="svg_4"/>
  <path d="m36.13,19.88c3.46,2.05 4.78,3.67 7,7c0.49,4.3 0.28,6.48 -1.81,10.31c-2.37,2.91 -3.95,4.49 -7.71,5.1c-7.56,0.24 -7.56,0.24 -10.28,-1.68c-2.6,-3.14 -4.09,-5.92 -4.64,-9.92c0.5,-4.35 1.42,-6.34 4.39,-9.48c4.05,-2.63 8.46,-2.23 13.05,-1.33z" fill="#E4E0E0" id="svg_5"/>
  <path d="m31.06,24.5c2.91,0.08 3.78,0.15 6.13,2c1.25,3.18 0.85,5.12 -0.07,8.38c-2,2 -2,2 -5.93,2.37c-2.92,-0.08 -3.78,-0.15 -6.13,-2c-1.26,-3.18 -0.86,-5.12 0.06,-8.37c2,-2 2,-2 5.94,-2.38z" fill="#C94646" id="svg_6"/>
 </g>
</svg>